<svg id="Слой_1" data-name="Слой 1" xmlns="http://www.w3.org/2000/svg" xmlns:xlink="http://www.w3.org/1999/xlink" viewBox="0 0 425.2 425.2">
  <defs>
    <linearGradient id="Безымянный_градиент_237" data-name="Безымянный градиент 237" x1="215.95" y1="210.53" x2="333.13" y2="268.7" gradientTransform="translate(-161.7 255) rotate(-45)" gradientUnits="userSpaceOnUse">
      <stop offset="0" stop-color="#ffdf15"/>
      <stop offset="0.21" stop-color="#ff8700"/>
      <stop offset="0.45" stop-color="#ff6300"/>
      <stop offset="0.68" stop-color="#ff3b00"/>
    </linearGradient>
    <linearGradient id="Безымянный_градиент_231" data-name="Безымянный градиент 231" x1="54.45" y1="229.94" x2="165.56" y2="285.09" gradientTransform="matrix(0.14, 0.99, 0.99, -0.14, -118.18, 71.06)" gradientUnits="userSpaceOnUse">
      <stop offset="0.12" stop-color="#ffdf15"/>
      <stop offset="0.45" stop-color="#ff8700"/>
      <stop offset="0.68" stop-color="#ff6300"/>
      <stop offset="0.9" stop-color="#ff3b00"/>
    </linearGradient>
    <linearGradient id="Безымянный_градиент_231-2" x1="265.09" y1="256.17" x2="361.3" y2="303.93" gradientTransform="translate(-161.7 255) rotate(-45)" xlink:href="#Безымянный_градиент_231"/>
    <linearGradient id="Безымянный_градиент_242" data-name="Безымянный градиент 242" x1="242.72" y1="240.32" x2="264.42" y2="251.09" gradientTransform="translate(-161.7 255) rotate(-45)" gradientUnits="userSpaceOnUse">
      <stop offset="0.33" stop-color="#ffdf15"/>
      <stop offset="1" stop-color="#ff8700"/>
    </linearGradient>
  </defs>
  <title>WP Meteor_logo</title>
  <g>
    <path d="M229.35,310.32l.92.64A35.82,35.82,0,1,0,266,249.05s-.06-.07-.1-.08a31.55,31.55,0,0,0-4.77-2.51s10.43,7.69,13.22,16.78c4.89,15.93-9.18,23.71-18.78,15.49-9.29-8,2.52-25-20.66-30.59,0,0,13.66,20.94,0,18.43S221,223.18,203,209.22C174.2,186.81,158.88,194,158.88,194s23.62,3.12,16,14.47c-5.91,8.74-25.51-9-35.53-32.46s-31.18-19.12-31.18-19.12,19.35,3.42,26.63,35.74,57.88,29.33,71.92,45c23,25.66-3.78,51.36,20.37,71l.07.05C227.84,309.22,228.59,309.78,229.35,310.32Z" style="fill: url(#Безымянный_градиент_237)"/>
    <path d="M102.8,102.74C120,145,155.61,124.86,160.65,148.33c3.36,15.62-14.58,10.78-24.09-3.61,0,0,3.91,29.3,34.49,35.77,12.5,2.65,23.73,9.61,23.73,9.61s-4.58-7.19-10.69-24.77c-9.21-26.49-19.77-39.45-36.9-41.49C115.94,120.14,102.8,102.74,102.8,102.74Z" style="fill: url(#Безымянный_градиент_231)"/>
    <path d="M241,211.94c-5.06-2.05-11.75-4.41-20.27-7.83C196.71,194.46,199,155,199,155c3.63,10.7,7.49,21.87,16.86,31.24,9.77,9.77,25.54,17.58,53.28,20.87-.49,0-1-.07-1.49-.09l1.81.13a57.77,57.77,0,0,1,1.23,115c-1.93.19-3.85.3-5.78.31a58.49,58.49,0,0,1-11.5-1.09c-.94-.21-1.89-.41-2.81-.64h-.06c-.93-.24-1.85-.5-2.77-.78-.47-.14-.93-.29-1.39-.45a54.76,54.76,0,0,1-6.79-2.74c-.45-.21-.88-.42-1.32-.65-.72-.37-1.44-.75-2.14-1.15a61,61,0,0,1-5.49-3.55c-.81-.6-1.6-1.21-2.41-1.85l-1.16-1,.07.05A35.84,35.84,0,1,0,266,249.05s-.06-.07-.1-.08c-7.56-5-21-7.05-21-7.05-12.6-3.88-18.5-11.41-21.29-17.9a34,34,0,0,1-3.14-12.93s5.84,13,18.47,17.82S259.23,219,241,211.94Z" style="fill: url(#Безымянный_градиент_231-2)"/>
    <path d="M209.16,268c-3.44-22.26-12.62-32.36-36.72-36.72,0,0,16.29,10.33,18.36,18.36s-7.81,3.21-9-1.61,1.14,11.25,10.32,14.46S209.16,268,209.16,268Z" style="fill: url(#Безымянный_градиент_242)"/>
  </g>
</svg>
